<svg id="图层_1" data-name="图层 1" xmlns="http://www.w3.org/2000/svg" viewBox="0 0 64 64"><defs><style>.cls-1{fill:#e8e8e8;}.cls-2{fill:#d7d7d8;}.cls-3{fill:#a5bbe5;}</style></defs><title>默认头像（管理员）</title><circle class="cls-1" cx="32" cy="32" r="28"/><path class="cls-2" d="M32,5.56A26.44,26.44,0,1,1,5.56,32,26.47,26.47,0,0,1,32,5.56M32,4A28,28,0,1,0,60,32,28,28,0,0,0,32,4Z"/><path class="cls-3" d="M27.39,37.6a9.23,9.23,0,1,0-4.62-8A9.25,9.25,0,0,0,27.39,37.6Z"/><path class="cls-3" d="M32,58.44a26.38,26.38,0,0,0,17-6.18c0-.13-.05-.26-.08-.39l-1.63-6.34a7.32,7.32,0,0,0-8.5-5.37,35.21,35.21,0,0,1-13.57,0,7.34,7.34,0,0,0-8.5,5.37l-1.62,6.34c0,.13-.05.26-.08.39A26.38,26.38,0,0,0,32,58.44Z"/></svg>