<svg id="图层_1" data-name="图层 1" xmlns="http://www.w3.org/2000/svg" viewBox="0 0 64 64"><defs><style>.cls-1{fill:#606060;}</style></defs><title>能力聚合</title><path class="cls-1" d="M56.17,16.56,33.69,4.08a3.47,3.47,0,0,0-3.38,0L7.83,16.57A3.48,3.48,0,0,0,6,19.62V44.39a3.5,3.5,0,0,0,1.8,3L30.31,59.92a3.47,3.47,0,0,0,3.38,0L56.17,47.44a3.5,3.5,0,0,0,1.8-3V19.61A3.5,3.5,0,0,0,56.17,16.56ZM32,8l19.78,11L40.63,25.08l-6.94-3.85a3.47,3.47,0,0,0-3.38,0l-7,3.9L12.12,19ZM25.1,30.29l5,2.74v5.46l-5-2.76Zm5,24.7L10.25,44V22.11l11.22,6.17v7.54a3.48,3.48,0,0,0,1.8,3l6.82,3.8Zm1.82-25.12L27.05,27.2,32,24.45l4.86,2.7ZM33.72,33l5.17-2.85v5.54l-5.17,2.87ZM53.76,44l-20,11.14V42.76l7-3.9a3.47,3.47,0,0,0,1.79-3V28.18L53.76,22Z"/><path class="cls-1" d="M14.91,39.51a1.74,1.74,0,0,0-1.75.05h0a1.71,1.71,0,0,0,1.71,3A1.73,1.73,0,0,0,15.79,41,1.72,1.72,0,0,0,14.91,39.51Z"/><path class="cls-1" d="M19.13,36.49h0a1.71,1.71,0,1,0,0,3.41,1.7,1.7,0,0,0,1.53-2.57A1.72,1.72,0,0,0,19.13,36.49Z"/><path class="cls-1" d="M31.91,19.71a1.71,1.71,0,1,0,0-3.41h0a1.71,1.71,0,1,0,0,3.41Z"/><path class="cls-1" d="M31.91,14.08a1.71,1.71,0,1,0-1.62-1.7A1.7,1.7,0,0,0,31.91,14.08Z"/><path class="cls-1" d="M43.82,40.3A1.71,1.71,0,1,0,43,38.77,1.72,1.72,0,0,0,43.82,40.3Z"/><path class="cls-1" d="M48.94,43.14a1.7,1.7,0,1,0-.84-1.53A1.72,1.72,0,0,0,48.94,43.14Z"/></svg>