<svg id="图层_1" data-name="图层 1" xmlns="http://www.w3.org/2000/svg" viewBox="0 0 64 64"><defs><style>.cls-1{fill:#606060;}</style></defs><title>应用集成</title><path class="cls-1" d="M6.52,21.75A3.39,3.39,0,0,1,7.83,17.2L30.37,5a3.4,3.4,0,0,1,3.38,0L56.3,17.2a3.35,3.35,0,0,1,1.3,1.34,3.48,3.48,0,0,1,.28,2.53,3.36,3.36,0,0,1-1.67,2.07L33.67,34.52a3.4,3.4,0,0,1-3.22,0L7.91,23.14a3.38,3.38,0,0,1-1.39-1.39ZM32.06,9.58,12.43,20.11l19.63,9.81,19.63-9.81Zm0,0"/><path class="cls-1" d="M6.43,34.49a2.4,2.4,0,0,1,3.26-3.25L31.44,42.05a1.34,1.34,0,0,0,1.29,0l21.71-10.9a2.41,2.41,0,0,1,3.25,1h0a2.41,2.41,0,0,1-1,3.25L35,46.29a6.41,6.41,0,0,1-2.95.82,6.25,6.25,0,0,1-2.9-.82L7.41,35.47a2.32,2.32,0,0,1-1-1Zm0,0"/><path class="cls-1" d="M6.43,46.74A2.41,2.41,0,0,1,7.86,43.3a2.34,2.34,0,0,1,1.83.19L31.44,54.3a1.34,1.34,0,0,0,1.29,0L54.44,43.4a2.4,2.4,0,0,1,3.25,1h0a2.41,2.41,0,0,1-1,3.25L35,58.53a6.3,6.3,0,0,1-2.93.89,6.3,6.3,0,0,1-2.92-.89L7.41,47.72a2.37,2.37,0,0,1-1-1Zm0,0"/></svg>