<svg id="图层_1" data-name="图层 1" xmlns="http://www.w3.org/2000/svg" viewBox="0 0 64 64"><defs><style>.cls-1{fill:#606060;}.cls-2{fill:#666;}</style></defs><title>能力开放</title><path class="cls-1" d="M52.83,58.45a3.85,3.85,0,0,1-.48,0h0c-4.88,0-12.43-3.56-20.16-9.52-7.74,6-15.29,9.53-20.2,9.53h-.36A6.11,6.11,0,0,1,7.56,56.9c-3.79-3.84-.66-13.53,8-24.72C6.87,21,3.74,11.31,7.54,7.51A6.12,6.12,0,0,1,11.61,6h.45c4.86,0,12.41,3.56,20.19,9.5C40,9.51,47.55,6,52.45,6h.36a6.11,6.11,0,0,1,4.07,1.55c3.79,3.84.65,13.53-8,24.7,8.63,11.18,11.77,20.87,8,24.68a6,6,0,0,1-4.07,1.58ZM35.67,46.08A62.47,62.47,0,0,0,41.53,50c4.37,2.58,8.34,4.07,10.89,4.07h.27a2.19,2.19,0,0,0,1.11-.31,2.93,2.93,0,0,0,.28-1.93A19.91,19.91,0,0,0,52,45.21a55.7,55.7,0,0,0-5.52-9l-.41-.53c-1.54,1.81-3.23,3.63-5,5.4C39.14,43,37.37,44.65,35.67,46.08Zm-25,7.7a2,2,0,0,0,1.09.31H12c2.62,0,6.59-1.49,11-4.07a67.39,67.39,0,0,0,5.86-3.94c-1.57-1.35-3.29-3-5.4-5-1.53-1.49-3.17-3.26-5-5.41l-.27.36a56.54,56.54,0,0,0-5.64,9.18,19.67,19.67,0,0,0-2.08,6.62A2.92,2.92,0,0,0,10.64,53.78ZM21.1,32.2c1.58,1.87,3.42,3.88,5.33,5.8s3.78,3.64,5.79,5.32C34.09,41.77,36,40,38,38s3.72-3.88,5.33-5.81C41.52,30,39.43,27.82,38,26.39c-1.74-1.76-3.69-3.55-5.79-5.32-1.89,1.57-3.84,3.36-5.79,5.32S22.76,30.22,21.1,32.2ZM10.65,10.59a2.9,2.9,0,0,0-.29,1.94,19.91,19.91,0,0,0,2.07,6.65,56.28,56.28,0,0,0,5.53,9l.4.53c1.57-1.84,3.25-3.66,5-5.41,1.9-1.91,3.67-3.55,5.41-5a65.31,65.31,0,0,0-5.86-4C18.53,11.79,14.56,10.3,12,10.3h-.27A2.14,2.14,0,0,0,10.65,10.59Zm25,7.72c1.8,1.54,3.62,3.23,5.41,5s3.56,3.69,5,5.41l.4-.53a55,55,0,0,0,5.51-9,19.65,19.65,0,0,0,2.08-6.63,2.84,2.84,0,0,0-.29-2,2,2,0,0,0-1.09-.31h-.23c-2.61,0-6.58,1.49-10.94,4.07A63.66,63.66,0,0,0,35.69,18.31Z"/><path class="cls-2" d="M29.54,32.19a2.68,2.68,0,1,0,1.34-2.31,2.68,2.68,0,0,0-1.34,2.31Zm0,0"/></svg>